<?xml version="1.0"?>
<svg xmlns="http://www.w3.org/2000/svg" xmlns:xlink="http://www.w3.org/1999/xlink" xmlns:svgjs="http://svgjs.com/svgjs" version="1.1" width="512" height="512" x="0" y="0" viewBox="0 0 512 512" style="enable-background:new 0 0 512 512" xml:space="preserve" class=""><g><g xmlns="http://www.w3.org/2000/svg"><path d="m238.398 144.396c-4.143 0-7.5 3.357-7.5 7.5s3.357 7.5 7.5 7.5h35.204c4.143 0 7.5-3.357 7.5-7.5s-3.357-7.5-7.5-7.5z" fill="#143774" data-original="#000000" style="" class=""/><path d="m463.05 31.155c0-9.252-10.695-13.497-21.157-16.43-10.424-2.921-25.195-5.527-43.906-7.745-37.974-4.501-88.399-6.98-141.987-6.98-34.58 0-68.675 1.062-98.622 3.071-3.81.256-7.01 3.236-7.222 7.049-.256 4.599 3.555 8.219 7.993 7.934 29.674-1.998 63.51-3.054 97.851-3.054 49.004 0 96.027 2.131 132.407 5.999 33.82 3.597 48.97 7.63 55.582 10.156-6.612 2.526-21.762 6.56-55.582 10.156-36.38 3.868-83.403 5.999-132.407 5.999s-96.026-2.131-132.406-5.999c-33.824-3.596-48.974-7.63-55.585-10.157 6.919-2.646 23.187-6.94 60.417-10.65 4.122-.41 7.131-4.085 6.72-8.206-.41-4.121-4.081-7.125-8.206-6.72-22.46 2.237-40.297 4.978-53.015 8.143-12.35 3.073-24.975 7.548-24.975 17.435 0 3.575 1.599 6.402 4.164 8.695 1.844 1.649 3.635 3.357 5.221 5.255l129.883 155.4c16.594 19.854 25.731 45.036 25.731 70.909v134.545c-4.141.055-8.01 1.908-10.638 5.12-2.667 3.261-3.718 7.499-2.882 11.628l15.803 78.083c1.32 6.522 7.052 11.21 13.706 11.21h8.145c4.107 0 7.688-3.165 7.811-7.27.127-4.247-3.278-7.73-7.497-7.73h-7.628l-15.392-76.051h81.242l-15.389 76.05h-12.53c-4.107 0-7.688 3.165-7.811 7.27-.127 4.247 3.278 7.73 7.497 7.73h13.676c6.627 0 12.392-4.715 13.706-11.211l15.802-78.081c.836-4.128-.214-8.366-2.88-11.627-2.627-3.213-6.497-5.066-10.639-5.122v-134.545c0-21.405 6.163-42.217 17.823-60.187 2.289-3.529 1.234-8.264-2.374-10.477-3.517-2.158-8.154-.874-10.392 2.594-13.123 20.341-20.058 43.872-20.058 68.07v134.535h-54.1v-134.535c0-29.384-10.378-57.982-29.222-80.528l-117.353-140.408c8.775 1.771 19.352 3.396 31.639 4.852 37.974 4.501 88.398 6.98 141.985 6.98 53.588 0 104.013-2.479 141.986-6.98 12.288-1.457 22.865-3.082 31.639-4.852l-107.176 128.233c-2.656 3.178-2.233 7.908.945 10.564 1.403 1.173 3.109 1.745 4.806 1.745 2.146 0 4.275-.915 5.759-2.69l119.708-143.226c1.586-1.898 3.377-3.606 5.221-5.255 2.564-2.293 4.163-5.119 4.163-8.694z" fill="#143774" data-original="#000000" style="" class=""/></g></g></svg>
